<svg xmlns="http://www.w3.org/2000/svg" width="96" height="96" viewBox="0 0 96 96" fill="none">
  <rect x="8" y="8" width="80" height="80" rx="18" fill="#0f172a"/>
  <ellipse cx="48" cy="30" rx="24" ry="10" fill="#38bdf8"/>
  <path d="M24 30v20c0 6 11 11 24 11s24-5 24-11V30" fill="#22c55e" opacity="0.2"/>
  <path d="M24 30v20c0 6 11 11 24 11s24-5 24-11V30" stroke="#f8fafc" stroke-width="2"/>
  <path d="M24 50c0 6 11 11 24 11s24-5 24-11" stroke="#f8fafc" stroke-width="2"/>
  <path d="M24 40c0 6 11 11 24 11s24-5 24-11" stroke="#f8fafc" stroke-width="2"/>
</svg>
